<svg width="1410" height="722" viewBox="0 0 1410 722" fill="none" xmlns="http://www.w3.org/2000/svg">
<path d="M1395.58 103.028C1386.95 87.7052 1374.83 74.6308 1360.21 64.863C1345.58 55.0953 1328.86 48.9088 1311.4 46.8046C1293.94 44.7003 1276.23 46.7374 1259.7 52.751C1243.18 58.7645 1228.3 68.5853 1216.27 81.4184C1204.25 94.2515 1195.41 109.736 1190.49 126.618C1185.56 143.5 1184.68 161.306 1187.91 178.593C1191.14 195.88 1198.4 212.162 1209.1 226.122C1219.8 240.081 1233.63 251.326 1249.48 258.945L1270.36 215.508C1261.33 211.168 1253.45 204.762 1247.35 196.809C1241.26 188.856 1237.12 179.58 1235.28 169.732C1233.44 159.883 1233.94 149.74 1236.75 140.122C1239.56 130.504 1244.59 121.683 1251.44 114.372C1258.29 107.061 1266.77 101.466 1276.18 98.0397C1285.6 94.6138 1295.69 93.4533 1305.63 94.6521C1315.58 95.8509 1325.11 99.3753 1333.44 104.94C1341.77 110.505 1348.67 117.953 1353.59 126.682L1395.58 103.028Z" fill="#6070FF"/>
<path d="M245.633 705.783C247.955 703.017 249.593 699.743 250.415 696.226C251.236 692.709 251.218 689.048 250.362 685.539C249.505 682.031 247.835 678.773 245.485 676.031C243.136 673.288 240.173 671.137 236.838 669.752C233.502 668.367 229.888 667.787 226.286 668.059C222.685 668.331 219.198 669.447 216.109 671.317C213.019 673.187 210.413 675.758 208.502 678.823C206.591 681.887 205.428 685.358 205.108 688.956L214.966 689.833C215.148 687.783 215.811 685.805 216.9 684.06C217.988 682.314 219.473 680.849 221.233 679.784C222.993 678.718 224.98 678.082 227.031 677.928C229.083 677.773 231.142 678.103 233.043 678.892C234.943 679.681 236.63 680.907 237.969 682.469C239.307 684.032 240.259 685.887 240.747 687.886C241.235 689.885 241.245 691.971 240.777 693.974C240.309 695.978 239.376 697.843 238.053 699.419L245.633 705.783Z" fill="#EBEBFF"/>
<rect x="1111.4" y="102" width="204" height="47" transform="rotate(-30 1111.4 102)" fill="#EBEBFF"/>
<rect x="696.838" y="631" width="161.407" height="28.875" transform="rotate(23.34 696.838 631)" fill="#EBEBFF"/>
<rect width="56.0124" height="10.0203" transform="matrix(0.977401 -0.211395 -0.211395 -0.977401 658.652 142.572)" fill="#6070FF"/>
<rect y="99.9232" width="108.669" height="19.4403" transform="rotate(-46.1415 0 99.9232)" fill="#EBEBFF"/>
<circle cx="827.898" cy="662.5" r="23.5" fill="#6070FF"/>
<circle cx="684.898" cy="149.5" r="11.5" fill="#EBEBFF"/>
<circle cx="1176.9" cy="562.5" r="37" fill="white" stroke="#EBEBFF"/>
<circle cx="19.5" cy="19.5" r="19" transform="matrix(1 0 0 -1 930.398 73)" fill="white" stroke="#EBEBFF"/>
<circle cx="351.898" cy="53.5" r="7" fill="white" stroke="#EBEBFF"/>
<circle cx="11.5" cy="11.5" r="11" transform="matrix(1 0 0 -1 38.3984 416)" fill="white" stroke="#EBEBFF"/>
<path d="M46.3826 73.0741C42.192 82.8892 42.0721 93.967 46.0492 103.87C50.0263 113.774 57.7747 121.692 67.5898 125.883C77.4049 130.073 88.4827 130.193 98.3862 126.216C108.29 122.239 116.208 114.49 120.398 104.675L46.3826 73.0741Z" fill="#6070FF"/>
<path d="M220.554 650C220.219 654.881 221.838 659.695 225.053 663.383C228.268 667.071 232.816 669.331 237.698 669.666C242.579 670 247.393 668.381 251.081 665.166C254.769 661.951 257.029 657.403 257.363 652.521L220.554 650Z" fill="#6070FF"/>
</svg>
